Coordinates
version=1
nRows=13
nColumns=18
inDegrees=yes

Units are S.I. units (second, meters, Newtons, ...)
Angles are in degrees.

endheader
time	ground_thorax_rot_x	ground_thorax_rot_y	ground_thorax_rot_z	ground_thorax_tx	ground_thorax_ty	ground_thorax_tz	clav_prot	clav_elev	scapula_abduction	scapula_elevation	scapula_upward_rot	scapula_winging	plane_elv	shoulder_elv	axial_rot	elbow_flexion	pro_sup
      2.40000000	     -0.31302643	     -7.11942436	     -9.08457902	     -0.00423131	      0.00403036	     -0.00078352	    -35.02062824	     10.84303537	    -27.35205960	      2.08837705	     30.79612933	     -4.68180227	     17.16269806	      3.18230010	     -9.14255092	      0.00000000	     34.32000000
      2.41000000	     -0.00016257	     -7.36516247	     -9.01548902	     -0.00423131	      0.00403036	     -0.00078352	    -34.87860300	     11.13482639	    -26.97369396	      2.23010506	     31.19890169	     -4.75176294	     17.89170635	      3.11494596	     -8.87500099	      0.00000000	     34.32000000
      2.42000000	     -0.04245188	     -7.42540652	     -9.02971507	     -0.00423131	      0.00403036	     -0.00078352	    -34.87721612	     11.14447857	    -26.97910211	      2.23756959	     31.19614339	     -4.75102080	     17.87216790	      3.11504868	     -8.88128421	      0.00000000	     34.32000000
      2.43000000	     -0.11867105	     -7.44045506	     -9.03191436	     -0.00423131	      0.00403036	     -0.00078352	    -34.97539145	     11.07938011	    -27.15869570	      2.19688003	     31.12080195	     -4.76812748	     18.97423534	      3.09956488	     -8.50611296	      0.00000000	     34.32000000
      2.44000000	     -0.05202221	     -7.41282173	     -9.03089250	     -0.00423131	      0.00403036	     -0.00078352	    -35.01959370	     11.04397835	    -27.25021873	      2.17774913	     31.06874014	     -4.77039471	     18.58622635	      3.25410922	     -9.00957362	      0.00000000	     34.32000000
      2.45000000	     -0.00923741	     -7.37109779	     -9.05439893	     -0.00423131	      0.00403036	     -0.00078352	    -35.07674780	     10.95812866	    -27.32090749	      2.11821268	     31.03436927	     -4.77988560	     18.29050360	      3.37347862	     -9.31257480	      0.00000000	     34.32000000
      2.46000000	     -0.03598566	     -7.34805062	     -9.07341791	     -0.00423131	      0.00403036	     -0.00078352	    -35.11158334	     10.86374014	    -27.39996929	      2.06702820	     30.93696887	     -4.76151864	     18.46534763	      3.42675421	     -9.28325249	      0.00000000	     34.32000000
      2.47000000	      0.03520936	     -7.39608819	     -9.02871723	     -0.00423131	      0.00403036	     -0.00078352	    -35.15748744	     10.98894858	    -27.39410463	      2.11430059	     31.12807446	     -4.84297721	     19.75193375	      3.21218782	     -8.43165706	      0.00000000	     34.32000000
      2.48000000	     -0.03747256	     -7.35540208	     -9.07883885	     -0.00423131	      0.00403036	     -0.00078352	    -35.13360743	     10.97463062	    -27.39989042	      2.11939581	     31.06129097	     -4.81297910	     19.70632540	      3.21338470	     -8.85848013	      0.00000000	     34.32000000
      2.49000000	     -0.13208696	     -7.37843771	     -9.09252649	     -0.00423131	      0.00403036	     -0.00078352	    -35.04680697	     10.97661319	    -27.30088636	      2.13860987	     31.01149929	     -4.76182568	     20.01192762	      3.17625160	     -9.06471077	      0.00000000	     34.32000000
      2.50000000	     -0.17270475	     -7.37291702	     -9.09281026	     -0.00423131	      0.00403036	     -0.00078352	    -34.96739676	     10.99595548	    -27.21641289	      2.16776923	     30.97036508	     -4.71753165	     20.10575605	      3.21757093	     -9.29757863	      0.00000000	     34.32000000
      2.51000000	     -0.12705820	     -7.55269451	     -8.95686704	     -0.00423131	      0.00403036	     -0.00078352	    -34.62850560	     11.05158960	    -26.69962511	      2.23780223	     30.97574702	     -4.57871824	     15.27657776	      3.44368647	    -10.54664703	      0.00000000	     34.32000000
      2.52000000	     -0.15975746	     -7.48509696	     -9.01139363	     -0.00423131	      0.00403036	     -0.00078352	    -34.69877885	     10.89116170	    -26.83424272	      2.14500586	     30.83415622	     -4.55832919	     16.80855528	      3.49662966	     -9.55392217	      0.00000000	     34.32000000
